<mxfile host="Electron" modified="2023-06-12T09:33:22.834Z" agent="Mozilla/5.0 (Macintosh; Intel Mac OS X 10_15_7) AppleWebKit/537.36 (KHTML, like Gecko) draw.io/21.2.8 Chrome/112.0.5615.165 Electron/24.2.0 Safari/537.36" etag="SS5cJAqO5YeVRIzOjG1F" version="21.2.8" type="device" pages="2">
  <diagram name="Page-1" id="RVIX32JNRfcjxRBxODD7">
    <mxGraphModel dx="1482" dy="868" grid="1" gridSize="10" guides="1" tooltips="1" connect="1" arrows="1" fold="1" page="1" pageScale="1" pageWidth="1100" pageHeight="850" math="0" shadow="0">
      <root>
        <mxCell id="0" />
        <mxCell id="1" parent="0" />
        <mxCell id="0jq5RBKnPww-iRbuOY_O-2" value="Digital Workplace Services &amp;lt;&amp;lt;dws&amp;gt;&amp;gt;" style="swimlane;whiteSpace=wrap;html=1;" parent="1" vertex="1">
          <mxGeometry x="40" y="80" width="1000" height="720" as="geometry" />
        </mxCell>
        <mxCell id="0jq5RBKnPww-iRbuOY_O-3" value="Virtual Agent &amp;lt;va&amp;gt;" style="swimlane;horizontal=0;whiteSpace=wrap;html=1;" parent="0jq5RBKnPww-iRbuOY_O-2" vertex="1">
          <mxGeometry x="40" y="80" width="440" height="280" as="geometry" />
        </mxCell>
        <mxCell id="0jq5RBKnPww-iRbuOY_O-14" value="Topic" style="swimlane;childLayout=stackLayout;horizontal=1;startSize=50;horizontalStack=0;rounded=1;fontSize=14;fontStyle=0;strokeWidth=2;resizeParent=0;resizeLast=1;shadow=0;dashed=0;align=center;arcSize=4;whiteSpace=wrap;html=1;" parent="0jq5RBKnPww-iRbuOY_O-3" vertex="1">
          <mxGeometry x="40" y="10" width="160" height="120" as="geometry" />
        </mxCell>
        <mxCell id="0jq5RBKnPww-iRbuOY_O-15" value="+ knowledgeDomain&lt;br&gt;+ isCOTS&lt;br&gt;" style="align=left;strokeColor=none;fillColor=none;spacingLeft=4;fontSize=12;verticalAlign=top;resizable=0;rotatable=0;part=1;html=1;" parent="0jq5RBKnPww-iRbuOY_O-14" vertex="1">
          <mxGeometry y="50" width="160" height="70" as="geometry" />
        </mxCell>
        <mxCell id="0jq5RBKnPww-iRbuOY_O-18" value="Agent" style="swimlane;childLayout=stackLayout;horizontal=1;startSize=50;horizontalStack=0;rounded=1;fontSize=14;fontStyle=0;strokeWidth=2;resizeParent=0;resizeLast=1;shadow=0;dashed=0;align=center;arcSize=4;whiteSpace=wrap;html=1;" parent="0jq5RBKnPww-iRbuOY_O-3" vertex="1">
          <mxGeometry x="220" y="10" width="160" height="120" as="geometry" />
        </mxCell>
        <mxCell id="0jq5RBKnPww-iRbuOY_O-19" value="agentID&lt;br&gt;&amp;nbsp;" style="align=left;strokeColor=none;fillColor=none;spacingLeft=4;fontSize=12;verticalAlign=top;resizable=0;rotatable=0;part=1;html=1;" parent="0jq5RBKnPww-iRbuOY_O-18" vertex="1">
          <mxGeometry y="50" width="160" height="70" as="geometry" />
        </mxCell>
        <mxCell id="0jq5RBKnPww-iRbuOY_O-20" value="Conversation" style="swimlane;childLayout=stackLayout;horizontal=1;startSize=50;horizontalStack=0;rounded=1;fontSize=14;fontStyle=0;strokeWidth=2;resizeParent=0;resizeLast=1;shadow=0;dashed=0;align=center;arcSize=4;whiteSpace=wrap;html=1;" parent="0jq5RBKnPww-iRbuOY_O-3" vertex="1">
          <mxGeometry x="40" y="140" width="160" height="90" as="geometry" />
        </mxCell>
        <mxCell id="0jq5RBKnPww-iRbuOY_O-21" value="conversationID&lt;br&gt;Questions&lt;br&gt;Responses&lt;br&gt;" style="align=left;strokeColor=none;fillColor=none;spacingLeft=4;fontSize=12;verticalAlign=top;resizable=0;rotatable=0;part=1;html=1;" parent="0jq5RBKnPww-iRbuOY_O-20" vertex="1">
          <mxGeometry y="50" width="160" height="40" as="geometry" />
        </mxCell>
        <mxCell id="0jq5RBKnPww-iRbuOY_O-23" value="Question" style="swimlane;childLayout=stackLayout;horizontal=1;startSize=50;horizontalStack=0;rounded=1;fontSize=14;fontStyle=0;strokeWidth=2;resizeParent=0;resizeLast=1;shadow=0;dashed=0;align=center;arcSize=4;whiteSpace=wrap;html=1;" parent="0jq5RBKnPww-iRbuOY_O-3" vertex="1">
          <mxGeometry x="220" y="140" width="160" height="90" as="geometry" />
        </mxCell>
        <mxCell id="0jq5RBKnPww-iRbuOY_O-24" value="question&lt;br&gt;canonical&lt;br&gt;" style="align=left;strokeColor=none;fillColor=none;spacingLeft=4;fontSize=12;verticalAlign=top;resizable=0;rotatable=0;part=1;html=1;" parent="0jq5RBKnPww-iRbuOY_O-23" vertex="1">
          <mxGeometry y="50" width="160" height="40" as="geometry" />
        </mxCell>
        <mxCell id="0jq5RBKnPww-iRbuOY_O-5" value="Service Desk&amp;lt;sd&amp;gt;" style="swimlane;horizontal=0;whiteSpace=wrap;html=1;" parent="0jq5RBKnPww-iRbuOY_O-2" vertex="1">
          <mxGeometry x="560" y="40" width="420" height="320" as="geometry" />
        </mxCell>
        <mxCell id="0jq5RBKnPww-iRbuOY_O-25" value="Ticket" style="swimlane;childLayout=stackLayout;horizontal=1;startSize=50;horizontalStack=0;rounded=1;fontSize=14;fontStyle=0;strokeWidth=2;resizeParent=0;resizeLast=1;shadow=0;dashed=0;align=center;arcSize=4;whiteSpace=wrap;html=1;" parent="0jq5RBKnPww-iRbuOY_O-5" vertex="1">
          <mxGeometry x="40" y="10" width="160" height="120" as="geometry" />
        </mxCell>
        <mxCell id="0jq5RBKnPww-iRbuOY_O-26" value="ticketId&lt;br&gt;serverity&lt;br&gt;priority&lt;br&gt;&lt;b&gt;ALL SNOW fields&lt;br&gt;&lt;/b&gt;" style="align=left;strokeColor=none;fillColor=none;spacingLeft=4;fontSize=12;verticalAlign=top;resizable=0;rotatable=0;part=1;html=1;" parent="0jq5RBKnPww-iRbuOY_O-25" vertex="1">
          <mxGeometry y="50" width="160" height="70" as="geometry" />
        </mxCell>
        <mxCell id="0jq5RBKnPww-iRbuOY_O-27" value="Resolver Group" style="swimlane;childLayout=stackLayout;horizontal=1;startSize=50;horizontalStack=0;rounded=1;fontSize=14;fontStyle=0;strokeWidth=2;resizeParent=0;resizeLast=1;shadow=0;dashed=0;align=center;arcSize=4;whiteSpace=wrap;html=1;" parent="0jq5RBKnPww-iRbuOY_O-5" vertex="1">
          <mxGeometry x="230" y="10" width="160" height="120" as="geometry" />
        </mxCell>
        <mxCell id="0jq5RBKnPww-iRbuOY_O-28" value="resolvergroupId&lt;br&gt;resolvergroupName&lt;br&gt;" style="align=left;strokeColor=none;fillColor=none;spacingLeft=4;fontSize=12;verticalAlign=top;resizable=0;rotatable=0;part=1;html=1;" parent="0jq5RBKnPww-iRbuOY_O-27" vertex="1">
          <mxGeometry y="50" width="160" height="70" as="geometry" />
        </mxCell>
        <mxCell id="0jq5RBKnPww-iRbuOY_O-6" value="Device Management &amp;lt;dm&amp;gt;" style="swimlane;horizontal=0;whiteSpace=wrap;html=1;" parent="0jq5RBKnPww-iRbuOY_O-2" vertex="1">
          <mxGeometry x="40" y="420" width="440" height="290" as="geometry" />
        </mxCell>
        <mxCell id="0jq5RBKnPww-iRbuOY_O-32" value="Device" style="swimlane;childLayout=stackLayout;horizontal=1;startSize=50;horizontalStack=0;rounded=1;fontSize=14;fontStyle=0;strokeWidth=2;resizeParent=0;resizeLast=1;shadow=0;dashed=0;align=center;arcSize=4;whiteSpace=wrap;html=1;" parent="0jq5RBKnPww-iRbuOY_O-6" vertex="1">
          <mxGeometry x="40" y="20" width="160" height="120" as="geometry" />
        </mxCell>
        <mxCell id="0jq5RBKnPww-iRbuOY_O-33" value="deviceID&lt;br&gt;deviceType&lt;br&gt;issueDate&lt;br&gt;" style="align=left;strokeColor=none;fillColor=none;spacingLeft=4;fontSize=12;verticalAlign=top;resizable=0;rotatable=0;part=1;html=1;" parent="0jq5RBKnPww-iRbuOY_O-32" vertex="1">
          <mxGeometry y="50" width="160" height="70" as="geometry" />
        </mxCell>
        <mxCell id="0jq5RBKnPww-iRbuOY_O-34" value="DeviceRequest" style="swimlane;childLayout=stackLayout;horizontal=1;startSize=50;horizontalStack=0;rounded=1;fontSize=14;fontStyle=0;strokeWidth=2;resizeParent=0;resizeLast=1;shadow=0;dashed=0;align=center;arcSize=4;whiteSpace=wrap;html=1;" parent="0jq5RBKnPww-iRbuOY_O-6" vertex="1">
          <mxGeometry x="240" y="20" width="160" height="120" as="geometry" />
        </mxCell>
        <mxCell id="0jq5RBKnPww-iRbuOY_O-35" value="deviceSpec&lt;br&gt;requestedOn&lt;br&gt;fulfilledOn&lt;br&gt;" style="align=left;strokeColor=none;fillColor=none;spacingLeft=4;fontSize=12;verticalAlign=top;resizable=0;rotatable=0;part=1;html=1;" parent="0jq5RBKnPww-iRbuOY_O-34" vertex="1">
          <mxGeometry y="50" width="160" height="70" as="geometry" />
        </mxCell>
        <mxCell id="0jq5RBKnPww-iRbuOY_O-36" value="" style="swimlane;childLayout=stackLayout;horizontal=1;startSize=50;horizontalStack=0;rounded=1;fontSize=14;fontStyle=0;strokeWidth=2;resizeParent=0;resizeLast=1;shadow=0;dashed=0;align=center;arcSize=4;whiteSpace=wrap;html=1;" parent="0jq5RBKnPww-iRbuOY_O-6" vertex="1">
          <mxGeometry x="240" y="160" width="160" height="120" as="geometry" />
        </mxCell>
        <mxCell id="0jq5RBKnPww-iRbuOY_O-37" value="o" style="align=left;strokeColor=none;fillColor=none;spacingLeft=4;fontSize=12;verticalAlign=top;resizable=0;rotatable=0;part=1;html=1;" parent="0jq5RBKnPww-iRbuOY_O-36" vertex="1">
          <mxGeometry y="50" width="160" height="70" as="geometry" />
        </mxCell>
        <mxCell id="0jq5RBKnPww-iRbuOY_O-7" value="Experience Managment" style="swimlane;horizontal=0;whiteSpace=wrap;html=1;" parent="0jq5RBKnPww-iRbuOY_O-2" vertex="1">
          <mxGeometry x="560" y="400" width="420" height="300" as="geometry" />
        </mxCell>
        <mxCell id="0jq5RBKnPww-iRbuOY_O-8" value="DEM&lt;br&gt;&amp;lt;XLA&amp;gt;" style="shape=cube;whiteSpace=wrap;html=1;boundedLbl=1;backgroundOutline=1;darkOpacity=0.05;darkOpacity2=0.1;size=10;" parent="0jq5RBKnPww-iRbuOY_O-7" vertex="1">
          <mxGeometry x="40" y="25" width="120" height="80" as="geometry" />
        </mxCell>
        <mxCell id="0jq5RBKnPww-iRbuOY_O-9" value="EX&lt;br&gt;&amp;lt;Employee Experience&amp;gt;" style="shape=cube;whiteSpace=wrap;html=1;boundedLbl=1;backgroundOutline=1;darkOpacity=0.05;darkOpacity2=0.1;size=10;" parent="0jq5RBKnPww-iRbuOY_O-7" vertex="1">
          <mxGeometry x="220" y="25" width="120" height="80" as="geometry" />
        </mxCell>
        <mxCell id="0jq5RBKnPww-iRbuOY_O-11" value="CX&lt;br&gt;&amp;lt;Customer Experience&amp;gt;" style="shape=cube;whiteSpace=wrap;html=1;boundedLbl=1;backgroundOutline=1;darkOpacity=0.05;darkOpacity2=0.1;size=10;" parent="0jq5RBKnPww-iRbuOY_O-7" vertex="1">
          <mxGeometry x="160" y="120" width="120" height="80" as="geometry" />
        </mxCell>
      </root>
    </mxGraphModel>
  </diagram>
  <diagram id="0DRlMcEhITssyOPHA8I9" name="Page-2">
    <mxGraphModel dx="682" dy="468" grid="0" gridSize="10" guides="1" tooltips="1" connect="1" arrows="1" fold="1" page="0" pageScale="1" pageWidth="1100" pageHeight="850" math="0" shadow="0">
      <root>
        <mxCell id="0" />
        <mxCell id="1" parent="0" />
        <mxCell id="0uSIfzNc1IT4I0fj2t4d-1" value="Technologist" style="swimlane;fontStyle=1;align=center;verticalAlign=top;childLayout=stackLayout;horizontal=1;startSize=26;horizontalStack=0;resizeParent=1;resizeParentMax=0;resizeLast=0;collapsible=1;marginBottom=0;whiteSpace=wrap;html=1;fontSize=16;" vertex="1" parent="1">
          <mxGeometry x="1049" y="777" width="160" height="86" as="geometry" />
        </mxCell>
        <mxCell id="0uSIfzNc1IT4I0fj2t4d-2" value="+ field: type" style="text;strokeColor=none;fillColor=none;align=left;verticalAlign=top;spacingLeft=4;spacingRight=4;overflow=hidden;rotatable=0;points=[[0,0.5],[1,0.5]];portConstraint=eastwest;whiteSpace=wrap;html=1;fontSize=16;" vertex="1" parent="0uSIfzNc1IT4I0fj2t4d-1">
          <mxGeometry y="26" width="160" height="26" as="geometry" />
        </mxCell>
        <mxCell id="0uSIfzNc1IT4I0fj2t4d-3" value="" style="line;strokeWidth=1;fillColor=none;align=left;verticalAlign=middle;spacingTop=-1;spacingLeft=3;spacingRight=3;rotatable=0;labelPosition=right;points=[];portConstraint=eastwest;strokeColor=inherit;fontSize=16;" vertex="1" parent="0uSIfzNc1IT4I0fj2t4d-1">
          <mxGeometry y="52" width="160" height="8" as="geometry" />
        </mxCell>
        <mxCell id="0uSIfzNc1IT4I0fj2t4d-4" value="+ method(type): type" style="text;strokeColor=none;fillColor=none;align=left;verticalAlign=top;spacingLeft=4;spacingRight=4;overflow=hidden;rotatable=0;points=[[0,0.5],[1,0.5]];portConstraint=eastwest;whiteSpace=wrap;html=1;fontSize=16;" vertex="1" parent="0uSIfzNc1IT4I0fj2t4d-1">
          <mxGeometry y="60" width="160" height="26" as="geometry" />
        </mxCell>
        <mxCell id="0uSIfzNc1IT4I0fj2t4d-6" style="edgeStyle=none;curved=1;rounded=0;orthogonalLoop=1;jettySize=auto;html=1;entryX=0.5;entryY=0;entryDx=0;entryDy=0;fontSize=12;startSize=8;endSize=8;" edge="1" parent="1" source="0uSIfzNc1IT4I0fj2t4d-5" target="0uSIfzNc1IT4I0fj2t4d-1">
          <mxGeometry relative="1" as="geometry" />
        </mxCell>
        <mxCell id="0uSIfzNc1IT4I0fj2t4d-5" value="&amp;laquo;interface&amp;raquo;&lt;br&gt;&lt;b&gt;Name&lt;/b&gt;" style="html=1;whiteSpace=wrap;fontSize=16;" vertex="1" parent="1">
          <mxGeometry x="1223" y="651" width="110" height="50" as="geometry" />
        </mxCell>
        <mxCell id="0uSIfzNc1IT4I0fj2t4d-8" value="Classname" style="swimlane;fontStyle=1;align=center;verticalAlign=top;childLayout=stackLayout;horizontal=1;startSize=26;horizontalStack=0;resizeParent=1;resizeParentMax=0;resizeLast=0;collapsible=1;marginBottom=0;whiteSpace=wrap;html=1;fontSize=16;" vertex="1" parent="1">
          <mxGeometry x="1049" y="777" width="160" height="86" as="geometry" />
        </mxCell>
        <mxCell id="0uSIfzNc1IT4I0fj2t4d-9" value="+ field: type" style="text;strokeColor=none;fillColor=none;align=left;verticalAlign=top;spacingLeft=4;spacingRight=4;overflow=hidden;rotatable=0;points=[[0,0.5],[1,0.5]];portConstraint=eastwest;whiteSpace=wrap;html=1;fontSize=16;" vertex="1" parent="0uSIfzNc1IT4I0fj2t4d-8">
          <mxGeometry y="26" width="160" height="26" as="geometry" />
        </mxCell>
        <mxCell id="0uSIfzNc1IT4I0fj2t4d-10" value="" style="line;strokeWidth=1;fillColor=none;align=left;verticalAlign=middle;spacingTop=-1;spacingLeft=3;spacingRight=3;rotatable=0;labelPosition=right;points=[];portConstraint=eastwest;strokeColor=inherit;fontSize=16;" vertex="1" parent="0uSIfzNc1IT4I0fj2t4d-8">
          <mxGeometry y="52" width="160" height="8" as="geometry" />
        </mxCell>
        <mxCell id="0uSIfzNc1IT4I0fj2t4d-11" value="+ method(type): type" style="text;strokeColor=none;fillColor=none;align=left;verticalAlign=top;spacingLeft=4;spacingRight=4;overflow=hidden;rotatable=0;points=[[0,0.5],[1,0.5]];portConstraint=eastwest;whiteSpace=wrap;html=1;fontSize=16;" vertex="1" parent="0uSIfzNc1IT4I0fj2t4d-8">
          <mxGeometry y="60" width="160" height="26" as="geometry" />
        </mxCell>
        <mxCell id="0uSIfzNc1IT4I0fj2t4d-12" value="Programmer" style="swimlane;fontStyle=1;align=center;verticalAlign=top;childLayout=stackLayout;horizontal=1;startSize=26;horizontalStack=0;resizeParent=1;resizeParentMax=0;resizeLast=0;collapsible=1;marginBottom=0;whiteSpace=wrap;html=1;fontSize=16;" vertex="1" parent="1">
          <mxGeometry x="1045" y="912" width="160" height="86" as="geometry" />
        </mxCell>
        <mxCell id="0uSIfzNc1IT4I0fj2t4d-13" value="+ field: type" style="text;strokeColor=none;fillColor=none;align=left;verticalAlign=top;spacingLeft=4;spacingRight=4;overflow=hidden;rotatable=0;points=[[0,0.5],[1,0.5]];portConstraint=eastwest;whiteSpace=wrap;html=1;fontSize=16;" vertex="1" parent="0uSIfzNc1IT4I0fj2t4d-12">
          <mxGeometry y="26" width="160" height="26" as="geometry" />
        </mxCell>
        <mxCell id="0uSIfzNc1IT4I0fj2t4d-14" value="" style="line;strokeWidth=1;fillColor=none;align=left;verticalAlign=middle;spacingTop=-1;spacingLeft=3;spacingRight=3;rotatable=0;labelPosition=right;points=[];portConstraint=eastwest;strokeColor=inherit;fontSize=16;" vertex="1" parent="0uSIfzNc1IT4I0fj2t4d-12">
          <mxGeometry y="52" width="160" height="8" as="geometry" />
        </mxCell>
        <mxCell id="0uSIfzNc1IT4I0fj2t4d-15" value="+ method(type): type" style="text;strokeColor=none;fillColor=none;align=left;verticalAlign=top;spacingLeft=4;spacingRight=4;overflow=hidden;rotatable=0;points=[[0,0.5],[1,0.5]];portConstraint=eastwest;whiteSpace=wrap;html=1;fontSize=16;" vertex="1" parent="0uSIfzNc1IT4I0fj2t4d-12">
          <mxGeometry y="60" width="160" height="26" as="geometry" />
        </mxCell>
        <mxCell id="0uSIfzNc1IT4I0fj2t4d-16" value="Java" style="swimlane;fontStyle=1;align=center;verticalAlign=top;childLayout=stackLayout;horizontal=1;startSize=26;horizontalStack=0;resizeParent=1;resizeParentMax=0;resizeLast=0;collapsible=1;marginBottom=0;whiteSpace=wrap;html=1;fontSize=16;" vertex="1" parent="1">
          <mxGeometry x="1245" y="912" width="160" height="86" as="geometry" />
        </mxCell>
        <mxCell id="0uSIfzNc1IT4I0fj2t4d-17" value="+ field: type" style="text;strokeColor=none;fillColor=none;align=left;verticalAlign=top;spacingLeft=4;spacingRight=4;overflow=hidden;rotatable=0;points=[[0,0.5],[1,0.5]];portConstraint=eastwest;whiteSpace=wrap;html=1;fontSize=16;" vertex="1" parent="0uSIfzNc1IT4I0fj2t4d-16">
          <mxGeometry y="26" width="160" height="26" as="geometry" />
        </mxCell>
        <mxCell id="0uSIfzNc1IT4I0fj2t4d-18" value="" style="line;strokeWidth=1;fillColor=none;align=left;verticalAlign=middle;spacingTop=-1;spacingLeft=3;spacingRight=3;rotatable=0;labelPosition=right;points=[];portConstraint=eastwest;strokeColor=inherit;fontSize=16;" vertex="1" parent="0uSIfzNc1IT4I0fj2t4d-16">
          <mxGeometry y="52" width="160" height="8" as="geometry" />
        </mxCell>
        <mxCell id="0uSIfzNc1IT4I0fj2t4d-19" value="+ method(type): type" style="text;strokeColor=none;fillColor=none;align=left;verticalAlign=top;spacingLeft=4;spacingRight=4;overflow=hidden;rotatable=0;points=[[0,0.5],[1,0.5]];portConstraint=eastwest;whiteSpace=wrap;html=1;fontSize=16;" vertex="1" parent="0uSIfzNc1IT4I0fj2t4d-16">
          <mxGeometry y="60" width="160" height="26" as="geometry" />
        </mxCell>
        <mxCell id="0uSIfzNc1IT4I0fj2t4d-20" value="Python" style="swimlane;fontStyle=1;align=center;verticalAlign=top;childLayout=stackLayout;horizontal=1;startSize=26;horizontalStack=0;resizeParent=1;resizeParentMax=0;resizeLast=0;collapsible=1;marginBottom=0;whiteSpace=wrap;html=1;fontSize=16;" vertex="1" parent="1">
          <mxGeometry x="1245" y="1007" width="160" height="86" as="geometry" />
        </mxCell>
        <mxCell id="0uSIfzNc1IT4I0fj2t4d-21" value="+ field: type" style="text;strokeColor=none;fillColor=none;align=left;verticalAlign=top;spacingLeft=4;spacingRight=4;overflow=hidden;rotatable=0;points=[[0,0.5],[1,0.5]];portConstraint=eastwest;whiteSpace=wrap;html=1;fontSize=16;" vertex="1" parent="0uSIfzNc1IT4I0fj2t4d-20">
          <mxGeometry y="26" width="160" height="26" as="geometry" />
        </mxCell>
        <mxCell id="0uSIfzNc1IT4I0fj2t4d-22" value="" style="line;strokeWidth=1;fillColor=none;align=left;verticalAlign=middle;spacingTop=-1;spacingLeft=3;spacingRight=3;rotatable=0;labelPosition=right;points=[];portConstraint=eastwest;strokeColor=inherit;fontSize=16;" vertex="1" parent="0uSIfzNc1IT4I0fj2t4d-20">
          <mxGeometry y="52" width="160" height="8" as="geometry" />
        </mxCell>
        <mxCell id="0uSIfzNc1IT4I0fj2t4d-23" value="+ method(type): type" style="text;strokeColor=none;fillColor=none;align=left;verticalAlign=top;spacingLeft=4;spacingRight=4;overflow=hidden;rotatable=0;points=[[0,0.5],[1,0.5]];portConstraint=eastwest;whiteSpace=wrap;html=1;fontSize=16;" vertex="1" parent="0uSIfzNc1IT4I0fj2t4d-20">
          <mxGeometry y="60" width="160" height="26" as="geometry" />
        </mxCell>
        <mxCell id="0uSIfzNc1IT4I0fj2t4d-24" value="GoLan" style="swimlane;fontStyle=1;align=center;verticalAlign=top;childLayout=stackLayout;horizontal=1;startSize=26;horizontalStack=0;resizeParent=1;resizeParentMax=0;resizeLast=0;collapsible=1;marginBottom=0;whiteSpace=wrap;html=1;fontSize=16;" vertex="1" parent="1">
          <mxGeometry x="1245" y="816" width="160" height="86" as="geometry" />
        </mxCell>
        <mxCell id="0uSIfzNc1IT4I0fj2t4d-25" value="+ field: type" style="text;strokeColor=none;fillColor=none;align=left;verticalAlign=top;spacingLeft=4;spacingRight=4;overflow=hidden;rotatable=0;points=[[0,0.5],[1,0.5]];portConstraint=eastwest;whiteSpace=wrap;html=1;fontSize=16;" vertex="1" parent="0uSIfzNc1IT4I0fj2t4d-24">
          <mxGeometry y="26" width="160" height="26" as="geometry" />
        </mxCell>
        <mxCell id="0uSIfzNc1IT4I0fj2t4d-26" value="" style="line;strokeWidth=1;fillColor=none;align=left;verticalAlign=middle;spacingTop=-1;spacingLeft=3;spacingRight=3;rotatable=0;labelPosition=right;points=[];portConstraint=eastwest;strokeColor=inherit;fontSize=16;" vertex="1" parent="0uSIfzNc1IT4I0fj2t4d-24">
          <mxGeometry y="52" width="160" height="8" as="geometry" />
        </mxCell>
        <mxCell id="0uSIfzNc1IT4I0fj2t4d-27" value="+ method(type): type" style="text;strokeColor=none;fillColor=none;align=left;verticalAlign=top;spacingLeft=4;spacingRight=4;overflow=hidden;rotatable=0;points=[[0,0.5],[1,0.5]];portConstraint=eastwest;whiteSpace=wrap;html=1;fontSize=16;" vertex="1" parent="0uSIfzNc1IT4I0fj2t4d-24">
          <mxGeometry y="60" width="160" height="26" as="geometry" />
        </mxCell>
      </root>
    </mxGraphModel>
  </diagram>
</mxfile>
